<mxfile host="app.diagrams.net" modified="2024-04-22T08:55:40.800Z" agent="Mozilla/5.0 (Windows NT 10.0; Win64; x64) AppleWebKit/537.36 (KHTML, like Gecko) Chrome/124.0.0.0 Safari/537.36" etag="bAQNoVfdZ6Tw2riT7WVr" version="24.2.7" type="github">
  <diagram name="第 1 页" id="WMboH52_YUJxDlIF1hyC">
    <mxGraphModel dx="1050" dy="522" grid="1" gridSize="10" guides="1" tooltips="1" connect="1" arrows="1" fold="1" page="1" pageScale="1" pageWidth="827" pageHeight="1169" math="0" shadow="0">
      <root>
        <mxCell id="0" />
        <mxCell id="1" parent="0" />
        <mxCell id="ivl_guwO-qkgs6LeWI7R-1" value="用户" style="html=1;whiteSpace=wrap;" vertex="1" parent="1">
          <mxGeometry x="110" y="70" width="110" height="50" as="geometry" />
        </mxCell>
        <mxCell id="ivl_guwO-qkgs6LeWI7R-2" value="用户登录控制类" style="html=1;whiteSpace=wrap;" vertex="1" parent="1">
          <mxGeometry x="430" y="70" width="110" height="50" as="geometry" />
        </mxCell>
        <mxCell id="ivl_guwO-qkgs6LeWI7R-3" value="用户登录界面" style="html=1;whiteSpace=wrap;" vertex="1" parent="1">
          <mxGeometry x="270" y="70" width="110" height="50" as="geometry" />
        </mxCell>
        <mxCell id="ivl_guwO-qkgs6LeWI7R-5" value="系统用户实体类" style="html=1;whiteSpace=wrap;" vertex="1" parent="1">
          <mxGeometry x="580" y="70" width="110" height="50" as="geometry" />
        </mxCell>
        <mxCell id="ivl_guwO-qkgs6LeWI7R-11" value="" style="endArrow=none;dashed=1;html=1;rounded=0;entryX=0.444;entryY=0.96;entryDx=0;entryDy=0;entryPerimeter=0;" edge="1" parent="1" source="ivl_guwO-qkgs6LeWI7R-15" target="ivl_guwO-qkgs6LeWI7R-1">
          <mxGeometry width="50" height="50" relative="1" as="geometry">
            <mxPoint x="160" y="520" as="sourcePoint" />
            <mxPoint x="160" y="160" as="targetPoint" />
          </mxGeometry>
        </mxCell>
        <mxCell id="ivl_guwO-qkgs6LeWI7R-12" value="" style="endArrow=none;dashed=1;html=1;rounded=0;entryX=0.5;entryY=1;entryDx=0;entryDy=0;" edge="1" parent="1" target="ivl_guwO-qkgs6LeWI7R-3">
          <mxGeometry width="50" height="50" relative="1" as="geometry">
            <mxPoint x="325" y="540" as="sourcePoint" />
            <mxPoint x="440" y="250" as="targetPoint" />
          </mxGeometry>
        </mxCell>
        <mxCell id="ivl_guwO-qkgs6LeWI7R-13" value="" style="endArrow=none;dashed=1;html=1;rounded=0;entryX=0.5;entryY=1;entryDx=0;entryDy=0;" edge="1" parent="1" source="ivl_guwO-qkgs6LeWI7R-21" target="ivl_guwO-qkgs6LeWI7R-2">
          <mxGeometry width="50" height="50" relative="1" as="geometry">
            <mxPoint x="490" y="520" as="sourcePoint" />
            <mxPoint x="440" y="250" as="targetPoint" />
          </mxGeometry>
        </mxCell>
        <mxCell id="ivl_guwO-qkgs6LeWI7R-14" value="" style="endArrow=none;dashed=1;html=1;rounded=0;entryX=0.5;entryY=1;entryDx=0;entryDy=0;" edge="1" parent="1" source="ivl_guwO-qkgs6LeWI7R-25" target="ivl_guwO-qkgs6LeWI7R-5">
          <mxGeometry width="50" height="50" relative="1" as="geometry">
            <mxPoint x="640" y="540" as="sourcePoint" />
            <mxPoint x="440" y="250" as="targetPoint" />
          </mxGeometry>
        </mxCell>
        <mxCell id="ivl_guwO-qkgs6LeWI7R-16" value="" style="endArrow=none;dashed=1;html=1;rounded=0;entryX=0.444;entryY=0.96;entryDx=0;entryDy=0;entryPerimeter=0;" edge="1" parent="1" target="ivl_guwO-qkgs6LeWI7R-15">
          <mxGeometry width="50" height="50" relative="1" as="geometry">
            <mxPoint x="160" y="520" as="sourcePoint" />
            <mxPoint x="159" y="118" as="targetPoint" />
          </mxGeometry>
        </mxCell>
        <mxCell id="ivl_guwO-qkgs6LeWI7R-15" value="" style="html=1;points=[[0,0,0,0,5],[0,1,0,0,-5],[1,0,0,0,5],[1,1,0,0,-5]];perimeter=orthogonalPerimeter;outlineConnect=0;targetShapes=umlLifeline;portConstraint=eastwest;newEdgeStyle={&quot;curved&quot;:0,&quot;rounded&quot;:0};" vertex="1" parent="1">
          <mxGeometry x="150" y="160" width="10" height="270" as="geometry" />
        </mxCell>
        <mxCell id="ivl_guwO-qkgs6LeWI7R-19" value="" style="html=1;points=[[0,0,0,0,5],[0,1,0,0,-5],[1,0,0,0,5],[1,1,0,0,-5]];perimeter=orthogonalPerimeter;outlineConnect=0;targetShapes=umlLifeline;portConstraint=eastwest;newEdgeStyle={&quot;curved&quot;:0,&quot;rounded&quot;:0};" vertex="1" parent="1">
          <mxGeometry x="320" y="160" width="10" height="270" as="geometry" />
        </mxCell>
        <mxCell id="ivl_guwO-qkgs6LeWI7R-20" value="2.验证登录信息" style="html=1;verticalAlign=bottom;endArrow=block;curved=0;rounded=0;" edge="1" parent="1" target="ivl_guwO-qkgs6LeWI7R-21">
          <mxGeometry width="80" relative="1" as="geometry">
            <mxPoint x="334" y="230" as="sourcePoint" />
            <mxPoint x="480" y="230" as="targetPoint" />
          </mxGeometry>
        </mxCell>
        <mxCell id="ivl_guwO-qkgs6LeWI7R-22" value="" style="endArrow=none;dashed=1;html=1;rounded=0;entryX=0.5;entryY=1;entryDx=0;entryDy=0;" edge="1" parent="1" target="ivl_guwO-qkgs6LeWI7R-21">
          <mxGeometry width="50" height="50" relative="1" as="geometry">
            <mxPoint x="490" y="520" as="sourcePoint" />
            <mxPoint x="485" y="120" as="targetPoint" />
          </mxGeometry>
        </mxCell>
        <mxCell id="ivl_guwO-qkgs6LeWI7R-21" value="" style="html=1;points=[[0,0,0,0,5],[0,1,0,0,-5],[1,0,0,0,5],[1,1,0,0,-5]];perimeter=orthogonalPerimeter;outlineConnect=0;targetShapes=umlLifeline;portConstraint=eastwest;newEdgeStyle={&quot;curved&quot;:0,&quot;rounded&quot;:0};" vertex="1" parent="1">
          <mxGeometry x="480" y="200" width="10" height="150" as="geometry" />
        </mxCell>
        <mxCell id="ivl_guwO-qkgs6LeWI7R-26" value="" style="endArrow=none;dashed=1;html=1;rounded=0;entryX=0.5;entryY=1;entryDx=0;entryDy=0;" edge="1" parent="1" target="ivl_guwO-qkgs6LeWI7R-25">
          <mxGeometry width="50" height="50" relative="1" as="geometry">
            <mxPoint x="640" y="530" as="sourcePoint" />
            <mxPoint x="635" y="120" as="targetPoint" />
          </mxGeometry>
        </mxCell>
        <mxCell id="ivl_guwO-qkgs6LeWI7R-25" value="" style="html=1;points=[[0,0,0,0,5],[0,1,0,0,-5],[1,0,0,0,5],[1,1,0,0,-5]];perimeter=orthogonalPerimeter;outlineConnect=0;targetShapes=umlLifeline;portConstraint=eastwest;newEdgeStyle={&quot;curved&quot;:0,&quot;rounded&quot;:0};" vertex="1" parent="1">
          <mxGeometry x="630" y="230" width="10" height="100" as="geometry" />
        </mxCell>
        <mxCell id="ivl_guwO-qkgs6LeWI7R-27" value="3.查找用户记录" style="html=1;verticalAlign=bottom;endArrow=block;curved=0;rounded=0;" edge="1" parent="1" target="ivl_guwO-qkgs6LeWI7R-25">
          <mxGeometry width="80" relative="1" as="geometry">
            <mxPoint x="490" y="260" as="sourcePoint" />
            <mxPoint x="570" y="260" as="targetPoint" />
          </mxGeometry>
        </mxCell>
        <mxCell id="ivl_guwO-qkgs6LeWI7R-29" value="1.输入用户信息" style="html=1;verticalAlign=bottom;endArrow=block;curved=0;rounded=0;" edge="1" parent="1" target="ivl_guwO-qkgs6LeWI7R-19">
          <mxGeometry width="80" relative="1" as="geometry">
            <mxPoint x="160" y="200" as="sourcePoint" />
            <mxPoint x="300" y="200" as="targetPoint" />
          </mxGeometry>
        </mxCell>
        <mxCell id="ivl_guwO-qkgs6LeWI7R-31" value="4.返回查询结果" style="html=1;verticalAlign=bottom;endArrow=block;curved=0;rounded=0;" edge="1" parent="1">
          <mxGeometry width="80" relative="1" as="geometry">
            <mxPoint x="630" y="294.5" as="sourcePoint" />
            <mxPoint x="490" y="294.5" as="targetPoint" />
          </mxGeometry>
        </mxCell>
        <mxCell id="ivl_guwO-qkgs6LeWI7R-32" value="5.返回用户验证结果" style="html=1;verticalAlign=bottom;endArrow=block;curved=0;rounded=0;" edge="1" parent="1">
          <mxGeometry x="-0.2" width="80" relative="1" as="geometry">
            <mxPoint x="480" y="320" as="sourcePoint" />
            <mxPoint x="330" y="320" as="targetPoint" />
            <mxPoint as="offset" />
          </mxGeometry>
        </mxCell>
        <mxCell id="ivl_guwO-qkgs6LeWI7R-33" value="6.显示首页或者&lt;div&gt;重新调回登录页面&lt;/div&gt;" style="html=1;verticalAlign=bottom;endArrow=block;curved=0;rounded=0;" edge="1" parent="1">
          <mxGeometry width="80" relative="1" as="geometry">
            <mxPoint x="320" y="350" as="sourcePoint" />
            <mxPoint x="160" y="350" as="targetPoint" />
          </mxGeometry>
        </mxCell>
      </root>
    </mxGraphModel>
  </diagram>
</mxfile>
